<svg xmlns="http://www.w3.org/2000/svg" width="440" height="280" viewBox="0 0 440 280">
  <defs>
    <filter id="soft" x="-20%" y="-20%" width="140%" height="140%"><feGaussianBlur stdDeviation="2.6"/></filter>
    <clipPath id="card"><rect x="228" y="36" width="184" height="208" rx="12"/></clipPath>
  </defs>
  <rect width="440" height="280" fill="#1b2735"/>
  <rect x="0" y="0" width="440" height="280" fill="#223142" opacity="0.55"/>

  <!-- icon -->
  <g transform="translate(30,40) scale(0.70)">
    <rect width="96" height="96" rx="20" fill="#3d5166"/>
    <g fill="none" stroke="#e5565b" stroke-width="5" stroke-linecap="round" stroke-linejoin="round">
      <path d="M17 33V17H33"/><path d="M63 17H79V33"/><path d="M79 63V79H63"/><path d="M33 79H17V63"/>
    </g>
    <text x="20.2" y="67.3" font-size="54" font-weight="700" font-family="Segoe UI, Arial, Helvetica, sans-serif" fill="#f4f7fa">R</text>
    <circle cx="66.8" cy="62.3" r="5" fill="#e5565b"/>
  </g>

  <!-- wordmark and tagline -->
  <text x="30" y="148" font-size="38" font-weight="700" font-family="Segoe UI, Arial, Helvetica, sans-serif" fill="#f4f7fa">Revlur<tspan fill="#e5565b">.</tspan></text>
  <text x="31" y="176" font-size="15" font-weight="500" font-family="Segoe UI, Arial, Helvetica, sans-serif" fill="#9fb1c4">Focus on what matters.</text>
  <text x="31" y="214" font-size="13" font-weight="600" font-family="Segoe UI, Arial, Helvetica, sans-serif" fill="#e5565b">Show one thing. Blur the rest.</text>

  <!-- mock page: blurred everywhere except one clear window -->
  <g clip-path="url(#card)">
    <rect x="228" y="36" width="184" height="208" fill="#e7ecf2"/>
    <g filter="url(#soft)" fill="#aab7c6">
      <rect x="244" y="52" width="92" height="9" rx="4"/>
      <rect x="244" y="68" width="150" height="7" rx="3"/>
      <rect x="244" y="82" width="132" height="7" rx="3"/>
      <rect x="244" y="96" width="150" height="7" rx="3"/>
      <rect x="244" y="190" width="150" height="7" rx="3"/>
      <rect x="244" y="204" width="110" height="7" rx="3"/>
      <rect x="244" y="218" width="140" height="7" rx="3"/>
      <rect x="244" y="232" width="90" height="7" rx="3"/>
    </g>
    <g filter="url(#soft)">
      <rect x="244" y="118" width="64" height="54" rx="7" fill="#c7d2de"/>
      <rect x="320" y="118" width="74" height="54" rx="7" fill="#c7d2de"/>
    </g>
  </g>
  <!-- the clear window -->
  <rect x="245" y="111" width="150" height="70" rx="3" fill="none" stroke="#000000" stroke-opacity="0.5" stroke-width="1"/>
  <rect x="246" y="112" width="148" height="68" rx="2" fill="#ffffff" stroke="#ffffff" stroke-width="1.5"/>
  <g fill="none" stroke="#e5565b" stroke-width="2">
    <path d="M236.5 122.5V102.5H256.5"/><path d="M383.5 102.5H403.5V122.5"/><path d="M403.5 169.5V189.5H383.5"/><path d="M256.5 189.5H236.5V169.5"/>
  </g>
  <text x="258" y="131" font-size="9" font-weight="500" font-family="Segoe UI, Arial, Helvetica, sans-serif" fill="#6b7280">Revenue</text>
  <text x="258" y="153" font-size="19" font-weight="700" font-family="Segoe UI, Arial, Helvetica, sans-serif" fill="#111827">$482k</text>
  <text x="258" y="168" font-size="9" font-weight="600" font-family="Segoe UI, Arial, Helvetica, sans-serif" fill="#16a34a">+12.4%</text>
  <polyline fill="none" stroke="#e5565b" stroke-width="2.2" stroke-linecap="round" stroke-linejoin="round" points="318,164 332,156 344,160 358,144 370,148 384,130"/>
</svg>
